<mxfile host="app.diagrams.net" modified="2023-06-08T18:50:42.698Z" agent="Mozilla/5.0 (Windows NT 10.0; Win64; x64) AppleWebKit/537.36 (KHTML, like Gecko) Chrome/114.0.0.0 Safari/537.36" etag="Lj6VIgrKDcUmLWubV7Qs" version="21.3.6" type="device">
  <diagram id="R2lEEEUBdFMjLlhIrx00" name="Page-1">
    <mxGraphModel dx="880" dy="452" grid="1" gridSize="10" guides="1" tooltips="1" connect="1" arrows="1" fold="1" page="1" pageScale="1" pageWidth="850" pageHeight="1100" math="0" shadow="0" extFonts="Permanent Marker^https://fonts.googleapis.com/css?family=Permanent+Marker">
      <root>
        <mxCell id="0" />
        <mxCell id="1" parent="0" />
        <mxCell id="RExnKSLZhipXlxjpPL_u-23" value="" style="edgeStyle=orthogonalEdgeStyle;rounded=0;orthogonalLoop=1;jettySize=auto;html=1;endArrow=none;endFill=0;" edge="1" parent="1" source="RExnKSLZhipXlxjpPL_u-1" target="RExnKSLZhipXlxjpPL_u-20">
          <mxGeometry relative="1" as="geometry" />
        </mxCell>
        <mxCell id="RExnKSLZhipXlxjpPL_u-1" value="Admin" style="rounded=0;whiteSpace=wrap;html=1;fillColor=#dae8fc;strokeColor=#6c8ebf;" vertex="1" parent="1">
          <mxGeometry x="70" y="80" width="120" height="60" as="geometry" />
        </mxCell>
        <mxCell id="RExnKSLZhipXlxjpPL_u-2" value="Customer" style="rounded=0;whiteSpace=wrap;html=1;fillColor=#dae8fc;strokeColor=#6c8ebf;" vertex="1" parent="1">
          <mxGeometry x="630" y="90" width="120" height="60" as="geometry" />
        </mxCell>
        <mxCell id="RExnKSLZhipXlxjpPL_u-3" value="Cart" style="rounded=0;whiteSpace=wrap;html=1;fillColor=#dae8fc;strokeColor=#6c8ebf;" vertex="1" parent="1">
          <mxGeometry x="640" y="390" width="120" height="60" as="geometry" />
        </mxCell>
        <mxCell id="RExnKSLZhipXlxjpPL_u-6" value="&lt;b&gt;&lt;u&gt;customer_id&lt;/u&gt;&lt;/b&gt;" style="ellipse;whiteSpace=wrap;html=1;fillColor=#d5e8d4;strokeColor=#82b366;" vertex="1" parent="1">
          <mxGeometry x="490" y="30" width="80" height="40" as="geometry" />
        </mxCell>
        <mxCell id="RExnKSLZhipXlxjpPL_u-7" value="contact" style="ellipse;whiteSpace=wrap;html=1;fillColor=#d5e8d4;strokeColor=#82b366;" vertex="1" parent="1">
          <mxGeometry x="740" y="20" width="100" height="40" as="geometry" />
        </mxCell>
        <mxCell id="RExnKSLZhipXlxjpPL_u-8" value="password" style="ellipse;whiteSpace=wrap;html=1;fillColor=#d5e8d4;strokeColor=#82b366;" vertex="1" parent="1">
          <mxGeometry x="570" y="190" width="100" height="40" as="geometry" />
        </mxCell>
        <mxCell id="RExnKSLZhipXlxjpPL_u-9" value="username" style="ellipse;whiteSpace=wrap;html=1;fillColor=#d5e8d4;strokeColor=#82b366;" vertex="1" parent="1">
          <mxGeometry x="740" y="200" width="100" height="40" as="geometry" />
        </mxCell>
        <mxCell id="RExnKSLZhipXlxjpPL_u-10" value="customer_name" style="ellipse;whiteSpace=wrap;html=1;fillColor=#d5e8d4;strokeColor=#82b366;" vertex="1" parent="1">
          <mxGeometry x="610" y="20" width="100" height="40" as="geometry" />
        </mxCell>
        <mxCell id="RExnKSLZhipXlxjpPL_u-11" value="password" style="ellipse;whiteSpace=wrap;html=1;fillColor=#d5e8d4;strokeColor=#82b366;" vertex="1" parent="1">
          <mxGeometry x="10" y="10" width="100" height="40" as="geometry" />
        </mxCell>
        <mxCell id="RExnKSLZhipXlxjpPL_u-12" value="username" style="ellipse;whiteSpace=wrap;html=1;fillColor=#d5e8d4;strokeColor=#82b366;" vertex="1" parent="1">
          <mxGeometry x="160" y="10" width="100" height="40" as="geometry" />
        </mxCell>
        <mxCell id="RExnKSLZhipXlxjpPL_u-13" value="Has" style="rhombus;whiteSpace=wrap;html=1;fillColor=#e1d5e7;strokeColor=#9673a6;" vertex="1" parent="1">
          <mxGeometry x="670" y="250" width="60" height="50" as="geometry" />
        </mxCell>
        <mxCell id="RExnKSLZhipXlxjpPL_u-14" value="total_amount" style="ellipse;whiteSpace=wrap;html=1;fillColor=#d5e8d4;strokeColor=#82b366;" vertex="1" parent="1">
          <mxGeometry x="750" y="490" width="80" height="30" as="geometry" />
        </mxCell>
        <mxCell id="RExnKSLZhipXlxjpPL_u-15" value="items" style="ellipse;whiteSpace=wrap;html=1;fillColor=#d5e8d4;strokeColor=#82b366;" vertex="1" parent="1">
          <mxGeometry x="630" y="490" width="80" height="30" as="geometry" />
        </mxCell>
        <mxCell id="RExnKSLZhipXlxjpPL_u-16" value="name" style="ellipse;whiteSpace=wrap;html=1;fillColor=#d5e8d4;strokeColor=#82b366;" vertex="1" parent="1">
          <mxGeometry x="160" y="405" width="60" height="30" as="geometry" />
        </mxCell>
        <mxCell id="RExnKSLZhipXlxjpPL_u-25" value="" style="edgeStyle=orthogonalEdgeStyle;rounded=0;orthogonalLoop=1;jettySize=auto;html=1;endArrow=none;endFill=0;" edge="1" parent="1" source="RExnKSLZhipXlxjpPL_u-17" target="RExnKSLZhipXlxjpPL_u-19">
          <mxGeometry relative="1" as="geometry" />
        </mxCell>
        <mxCell id="RExnKSLZhipXlxjpPL_u-17" value="Book" style="rounded=0;whiteSpace=wrap;html=1;fillColor=#dae8fc;strokeColor=#6c8ebf;" vertex="1" parent="1">
          <mxGeometry x="70" y="310" width="120" height="60" as="geometry" />
        </mxCell>
        <mxCell id="RExnKSLZhipXlxjpPL_u-27" style="rounded=0;orthogonalLoop=1;jettySize=auto;html=1;exitX=0.5;exitY=0;exitDx=0;exitDy=0;entryX=0.25;entryY=1;entryDx=0;entryDy=0;elbow=vertical;endArrow=none;endFill=0;" edge="1" parent="1" source="RExnKSLZhipXlxjpPL_u-18" target="RExnKSLZhipXlxjpPL_u-17">
          <mxGeometry relative="1" as="geometry" />
        </mxCell>
        <mxCell id="RExnKSLZhipXlxjpPL_u-18" value="author" style="ellipse;whiteSpace=wrap;html=1;fillColor=#d5e8d4;strokeColor=#82b366;" vertex="1" parent="1">
          <mxGeometry x="40" y="405" width="60" height="30" as="geometry" />
        </mxCell>
        <mxCell id="RExnKSLZhipXlxjpPL_u-19" value="price" style="ellipse;whiteSpace=wrap;html=1;fillColor=#d5e8d4;strokeColor=#82b366;" vertex="1" parent="1">
          <mxGeometry x="100" y="450" width="60" height="30" as="geometry" />
        </mxCell>
        <mxCell id="RExnKSLZhipXlxjpPL_u-24" value="" style="edgeStyle=orthogonalEdgeStyle;rounded=0;orthogonalLoop=1;jettySize=auto;html=1;endArrow=none;endFill=0;" edge="1" parent="1" source="RExnKSLZhipXlxjpPL_u-20" target="RExnKSLZhipXlxjpPL_u-17">
          <mxGeometry relative="1" as="geometry" />
        </mxCell>
        <mxCell id="RExnKSLZhipXlxjpPL_u-20" value="upload" style="rhombus;whiteSpace=wrap;html=1;fillColor=#e1d5e7;strokeColor=#9673a6;" vertex="1" parent="1">
          <mxGeometry x="100" y="200" width="60" height="50" as="geometry" />
        </mxCell>
        <mxCell id="RExnKSLZhipXlxjpPL_u-21" value="&lt;b&gt;&lt;u&gt;book_id&lt;/u&gt;&lt;/b&gt;" style="ellipse;whiteSpace=wrap;html=1;fillColor=#d5e8d4;strokeColor=#82b366;" vertex="1" parent="1">
          <mxGeometry x="230" y="350" width="60" height="30" as="geometry" />
        </mxCell>
        <mxCell id="RExnKSLZhipXlxjpPL_u-22" value="&lt;b&gt;&lt;u&gt;order_id&lt;/u&gt;&lt;/b&gt;" style="ellipse;whiteSpace=wrap;html=1;fillColor=#d5e8d4;strokeColor=#82b366;" vertex="1" parent="1">
          <mxGeometry x="530" y="450" width="60" height="30" as="geometry" />
        </mxCell>
        <mxCell id="RExnKSLZhipXlxjpPL_u-28" value="" style="endArrow=none;html=1;rounded=0;exitX=0.5;exitY=0;exitDx=0;exitDy=0;entryX=0.75;entryY=1;entryDx=0;entryDy=0;" edge="1" parent="1" source="RExnKSLZhipXlxjpPL_u-16" target="RExnKSLZhipXlxjpPL_u-17">
          <mxGeometry width="50" height="50" relative="1" as="geometry">
            <mxPoint x="400" y="460" as="sourcePoint" />
            <mxPoint x="450" y="410" as="targetPoint" />
          </mxGeometry>
        </mxCell>
        <mxCell id="RExnKSLZhipXlxjpPL_u-29" value="" style="endArrow=none;html=1;rounded=0;entryX=0;entryY=0.5;entryDx=0;entryDy=0;exitX=1;exitY=0.5;exitDx=0;exitDy=0;" edge="1" parent="1" source="RExnKSLZhipXlxjpPL_u-17" target="RExnKSLZhipXlxjpPL_u-21">
          <mxGeometry width="50" height="50" relative="1" as="geometry">
            <mxPoint x="400" y="460" as="sourcePoint" />
            <mxPoint x="450" y="410" as="targetPoint" />
          </mxGeometry>
        </mxCell>
        <mxCell id="RExnKSLZhipXlxjpPL_u-30" value="" style="endArrow=none;html=1;rounded=0;exitX=0.617;exitY=0;exitDx=0;exitDy=0;exitPerimeter=0;" edge="1" parent="1" source="RExnKSLZhipXlxjpPL_u-22" target="RExnKSLZhipXlxjpPL_u-3">
          <mxGeometry width="50" height="50" relative="1" as="geometry">
            <mxPoint x="400" y="360" as="sourcePoint" />
            <mxPoint x="450" y="310" as="targetPoint" />
          </mxGeometry>
        </mxCell>
        <mxCell id="RExnKSLZhipXlxjpPL_u-31" value="" style="endArrow=none;html=1;rounded=0;entryX=0.5;entryY=1;entryDx=0;entryDy=0;exitX=0.5;exitY=0;exitDx=0;exitDy=0;" edge="1" parent="1" source="RExnKSLZhipXlxjpPL_u-15" target="RExnKSLZhipXlxjpPL_u-3">
          <mxGeometry width="50" height="50" relative="1" as="geometry">
            <mxPoint x="400" y="360" as="sourcePoint" />
            <mxPoint x="450" y="310" as="targetPoint" />
          </mxGeometry>
        </mxCell>
        <mxCell id="RExnKSLZhipXlxjpPL_u-32" value="" style="endArrow=none;html=1;rounded=0;entryX=0.75;entryY=1;entryDx=0;entryDy=0;exitX=0.5;exitY=0;exitDx=0;exitDy=0;" edge="1" parent="1" source="RExnKSLZhipXlxjpPL_u-14" target="RExnKSLZhipXlxjpPL_u-3">
          <mxGeometry width="50" height="50" relative="1" as="geometry">
            <mxPoint x="400" y="360" as="sourcePoint" />
            <mxPoint x="450" y="310" as="targetPoint" />
          </mxGeometry>
        </mxCell>
        <mxCell id="RExnKSLZhipXlxjpPL_u-33" value="" style="endArrow=none;html=1;rounded=0;entryX=0.583;entryY=1.067;entryDx=0;entryDy=0;entryPerimeter=0;" edge="1" parent="1" source="RExnKSLZhipXlxjpPL_u-13" target="RExnKSLZhipXlxjpPL_u-2">
          <mxGeometry width="50" height="50" relative="1" as="geometry">
            <mxPoint x="400" y="360" as="sourcePoint" />
            <mxPoint x="450" y="310" as="targetPoint" />
          </mxGeometry>
        </mxCell>
        <mxCell id="RExnKSLZhipXlxjpPL_u-34" value="" style="endArrow=none;html=1;rounded=0;entryX=0.5;entryY=0;entryDx=0;entryDy=0;exitX=0.25;exitY=1;exitDx=0;exitDy=0;" edge="1" parent="1" source="RExnKSLZhipXlxjpPL_u-2" target="RExnKSLZhipXlxjpPL_u-8">
          <mxGeometry width="50" height="50" relative="1" as="geometry">
            <mxPoint x="400" y="360" as="sourcePoint" />
            <mxPoint x="450" y="310" as="targetPoint" />
          </mxGeometry>
        </mxCell>
        <mxCell id="RExnKSLZhipXlxjpPL_u-35" value="" style="endArrow=none;html=1;rounded=0;entryX=0.5;entryY=0;entryDx=0;entryDy=0;exitX=0.75;exitY=1;exitDx=0;exitDy=0;" edge="1" parent="1" source="RExnKSLZhipXlxjpPL_u-2" target="RExnKSLZhipXlxjpPL_u-9">
          <mxGeometry width="50" height="50" relative="1" as="geometry">
            <mxPoint x="400" y="360" as="sourcePoint" />
            <mxPoint x="450" y="310" as="targetPoint" />
          </mxGeometry>
        </mxCell>
        <mxCell id="RExnKSLZhipXlxjpPL_u-36" value="" style="endArrow=none;html=1;rounded=0;entryX=0.5;entryY=1;entryDx=0;entryDy=0;" edge="1" parent="1" source="RExnKSLZhipXlxjpPL_u-3" target="RExnKSLZhipXlxjpPL_u-13">
          <mxGeometry width="50" height="50" relative="1" as="geometry">
            <mxPoint x="400" y="360" as="sourcePoint" />
            <mxPoint x="450" y="310" as="targetPoint" />
          </mxGeometry>
        </mxCell>
        <mxCell id="RExnKSLZhipXlxjpPL_u-37" value="" style="endArrow=none;html=1;rounded=0;exitX=0.817;exitY=0;exitDx=0;exitDy=0;exitPerimeter=0;entryX=0.4;entryY=1;entryDx=0;entryDy=0;entryPerimeter=0;" edge="1" parent="1" source="RExnKSLZhipXlxjpPL_u-1" target="RExnKSLZhipXlxjpPL_u-12">
          <mxGeometry width="50" height="50" relative="1" as="geometry">
            <mxPoint x="400" y="160" as="sourcePoint" />
            <mxPoint x="450" y="110" as="targetPoint" />
          </mxGeometry>
        </mxCell>
        <mxCell id="RExnKSLZhipXlxjpPL_u-38" value="" style="endArrow=none;html=1;rounded=0;exitX=0.25;exitY=0;exitDx=0;exitDy=0;entryX=0.5;entryY=1;entryDx=0;entryDy=0;" edge="1" parent="1" source="RExnKSLZhipXlxjpPL_u-1" target="RExnKSLZhipXlxjpPL_u-11">
          <mxGeometry width="50" height="50" relative="1" as="geometry">
            <mxPoint x="400" y="160" as="sourcePoint" />
            <mxPoint x="450" y="110" as="targetPoint" />
          </mxGeometry>
        </mxCell>
        <mxCell id="RExnKSLZhipXlxjpPL_u-40" style="edgeStyle=orthogonalEdgeStyle;rounded=0;orthogonalLoop=1;jettySize=auto;html=1;entryX=1;entryY=0.5;entryDx=0;entryDy=0;endArrow=none;endFill=0;" edge="1" parent="1" source="RExnKSLZhipXlxjpPL_u-39" target="RExnKSLZhipXlxjpPL_u-17">
          <mxGeometry relative="1" as="geometry" />
        </mxCell>
        <mxCell id="RExnKSLZhipXlxjpPL_u-41" style="edgeStyle=orthogonalEdgeStyle;rounded=0;orthogonalLoop=1;jettySize=auto;html=1;exitX=1;exitY=0.5;exitDx=0;exitDy=0;entryX=0;entryY=0.5;entryDx=0;entryDy=0;endArrow=none;endFill=0;" edge="1" parent="1" source="RExnKSLZhipXlxjpPL_u-39" target="RExnKSLZhipXlxjpPL_u-3">
          <mxGeometry relative="1" as="geometry" />
        </mxCell>
        <mxCell id="RExnKSLZhipXlxjpPL_u-39" value="Has" style="rhombus;whiteSpace=wrap;html=1;fillColor=#e1d5e7;strokeColor=#9673a6;" vertex="1" parent="1">
          <mxGeometry x="395" y="315" width="60" height="50" as="geometry" />
        </mxCell>
        <mxCell id="RExnKSLZhipXlxjpPL_u-42" value="" style="endArrow=none;html=1;rounded=0;entryX=0;entryY=0.5;entryDx=0;entryDy=0;exitX=0.5;exitY=1;exitDx=0;exitDy=0;" edge="1" parent="1" source="RExnKSLZhipXlxjpPL_u-6" target="RExnKSLZhipXlxjpPL_u-2">
          <mxGeometry width="50" height="50" relative="1" as="geometry">
            <mxPoint x="400" y="260" as="sourcePoint" />
            <mxPoint x="450" y="210" as="targetPoint" />
          </mxGeometry>
        </mxCell>
        <mxCell id="RExnKSLZhipXlxjpPL_u-43" value="" style="endArrow=none;html=1;rounded=0;entryX=0.342;entryY=-0.033;entryDx=0;entryDy=0;entryPerimeter=0;exitX=0.42;exitY=1;exitDx=0;exitDy=0;exitPerimeter=0;" edge="1" parent="1" source="RExnKSLZhipXlxjpPL_u-10" target="RExnKSLZhipXlxjpPL_u-2">
          <mxGeometry width="50" height="50" relative="1" as="geometry">
            <mxPoint x="400" y="260" as="sourcePoint" />
            <mxPoint x="450" y="210" as="targetPoint" />
          </mxGeometry>
        </mxCell>
        <mxCell id="RExnKSLZhipXlxjpPL_u-44" value="" style="endArrow=none;html=1;rounded=0;entryX=0.75;entryY=0;entryDx=0;entryDy=0;exitX=0.5;exitY=1;exitDx=0;exitDy=0;fillColor=#ffe6cc;strokeColor=#d79b00;" edge="1" parent="1" source="RExnKSLZhipXlxjpPL_u-7" target="RExnKSLZhipXlxjpPL_u-2">
          <mxGeometry width="50" height="50" relative="1" as="geometry">
            <mxPoint x="400" y="260" as="sourcePoint" />
            <mxPoint x="450" y="210" as="targetPoint" />
          </mxGeometry>
        </mxCell>
      </root>
    </mxGraphModel>
  </diagram>
</mxfile>
